# xmcd
#
# Track frame offsets: 
#        150
#        18705
#        36550
#        51292
#        67277
#        80936
#        94625
#        114390
#        129076
#        143115
#        161315
#        175522
#        190513
#        206310
#        223981
#        242302
#        255772
#
# Disc length: 3587 seconds
#
# Revision: 0
# Processed by: cddbd v1.5.2PL0 Copyright (c) Steve Scherf et al.
# Submitted via: ExactAudioCopy v0.99pb5
#
DISCID=e50e0111
DTITLE=Various Artist - CD-X Vol. 515 - Jan 3 2011
DYEAR=2011
DGENRE=Country
TTITLE0=Randy Montana - 1,000 Faces
TTITLE1=Star De Azlan - A Man Who Can Dance
TTITLE2=Trace Adkins - Brown Chicken Brown Cow
TTITLE3=Joanna Smith - Georgia Mud
TTITLE4=Miranda Lambert - Heart Like Mine
TTITLE5=Ashton Shepherd - Look It Up (Radio Edit)
TTITLE6=Brad Paisley - This Is Country Music (Radio Edit)
TTITLE7=D.J. Miller - Whatever It Takes
TTITLE8=Curtis and Luckey - Eye Candy
TTITLE9=David Bradley - Hard Time Movin' On (feat Rodney Crowell)
TTITLE10=Jenny and Ashley - Indescribable
TTITLE11=JB And The Moonshine Band - Perfect Girl
TTITLE12=David Adam Byrnes - Sweet Distraction
TTITLE13=Kim McLean - Sweet Tea
TTITLE14=Derek O'Bannon - Thinkin' 'Bout The Wedding Night
TTITLE15=The Grascals - I Am Strong (w Dolly Parton)
TTITLE16=The Grascals - I Am Strong (w Friends)
EXTD=
EXTT0=
EXTT1=
EXTT2=
EXTT3=
EXTT4=
EXTT5=
EXTT6=
EXTT7=
EXTT8=
EXTT9=
EXTT10=
EXTT11=
EXTT12=
EXTT13=
EXTT14=
EXTT15=
EXTT16=
PLAYORDER=
